<svg version="1.1" id="Layer_1" xmlns="http://www.w3.org/2000/svg" xmlns:xlink="http://www.w3.org/1999/xlink" x="0px" y="0px"
	 width="100%" viewBox="0 0 445 113" enable-background="new 0 0 445 113" xml:space="preserve">
<path fill="#010101" opacity="1.000000" stroke="none" 
	d="
M319.000000,114.000000 
	C212.666672,114.000000 106.833359,114.000000 1.000028,114.000000 
	C1.000019,76.333351 1.000019,38.666702 1.000010,1.000039 
	C149.333298,1.000026 297.666595,1.000026 445.999939,1.000013 
	C445.999939,38.666630 445.999939,76.333260 445.999969,113.999939 
	C403.833344,114.000000 361.666656,114.000000 319.000000,114.000000 
M35.547119,23.962971 
	C33.883129,23.002922 32.219135,22.042871 30.176228,20.864206 
	C30.176228,40.127144 30.176228,58.687046 30.176228,77.995377 
	C46.539619,68.343132 62.441544,58.963081 79.158676,49.102177 
	C64.301346,40.501820 50.264828,32.376595 35.547119,23.962971 
M377.949066,39.595917 
	C376.539429,38.416576 375.265564,36.871685 373.641907,36.268749 
	C373.118286,36.074284 371.099213,38.202732 370.741394,39.531651 
	C367.442169,51.784355 364.357452,64.094810 361.138916,76.667389 
	C363.514984,76.667389 365.467834,76.667389 367.754730,76.667389 
	C369.992340,67.984612 372.228241,59.308475 374.727814,49.609203 
	C375.718018,51.606308 376.329254,52.666874 376.786713,53.790077 
	C379.467255,60.371864 382.004028,67.015457 384.851929,73.523293 
	C385.484344,74.968376 387.363190,77.061363 388.327972,76.894066 
	C389.859650,76.628487 391.311646,74.869766 392.405731,73.442482 
	C393.275879,72.307289 393.541595,70.715523 394.108307,69.339897 
	C396.775940,62.864655 399.454803,56.394043 402.433929,49.185551 
	C404.927490,58.970238 407.164368,67.747772 409.402924,76.531807 
	C411.721741,76.531807 413.765350,76.531807 416.049500,76.531807 
	C412.914825,63.977180 409.937225,51.770451 406.735687,39.622723 
	C406.378601,38.267902 404.639069,36.217514 403.734924,36.313808 
	C402.359375,36.460320 400.646210,37.951672 399.972839,39.314705 
	C398.075439,43.155285 396.655212,47.229984 395.009338,51.196827 
	C393.046417,55.927776 391.044556,60.642551 388.730988,66.145966 
	C384.908020,56.834976 381.520050,48.583473 377.949066,39.595917 
M296.943756,36.580124 
	C293.615356,36.580643 290.281464,36.457233 286.959564,36.604443 
	C276.112427,37.085144 268.984680,45.027962 269.073273,56.412323 
	C269.162323,67.862190 276.791595,76.685303 287.271729,76.751297 
	C292.670258,76.785294 298.074615,75.732239 303.478760,75.194839 
	C304.262146,75.116943 305.091492,75.030586 305.844299,75.197495 
	C308.996216,75.896355 312.127075,76.690186 315.265656,77.449226 
	C315.401733,77.001129 315.537811,76.553032 315.673889,76.104927 
	C313.764648,74.361526 311.855408,72.618134 309.970642,70.897064 
	C321.017303,53.601498 311.035217,36.853699 296.943756,36.580124 
M191.779999,65.784004 
	C198.061005,65.558792 204.461761,64.816032 208.104752,71.883667 
	C210.808090,77.128334 215.405716,77.777000 221.273178,76.333992 
	C217.625259,72.359154 214.200729,68.627754 210.638092,64.745857 
	C211.783997,63.897758 212.770645,63.330898 213.556259,62.559345 
	C218.360931,57.840649 218.880295,52.109463 217.235519,45.971832 
	C215.734406,40.370312 211.967789,36.997616 206.227509,36.812580 
	C196.808502,36.508957 187.372574,36.730358 177.974564,36.730358 
	C177.974564,50.310066 177.974564,63.488461 177.974564,76.656067 
	C180.152176,76.656067 181.928360,76.656067 184.170563,76.656067 
	C184.170563,65.738617 184.170563,55.007401 184.170563,43.891495 
	C191.095764,43.891495 197.552078,43.828320 204.006531,43.911499 
	C209.160217,43.977913 211.187027,46.114124 211.242233,51.231361 
	C211.301300,56.707100 209.246613,59.018196 204.012024,59.111141 
	C199.067627,59.198933 194.120468,59.129997 187.800232,59.129997 
	C189.097992,61.958004 189.974991,63.869160 191.779999,65.784004 
M115.126518,58.591248 
	C109.891861,58.591248 104.657204,58.591248 99.627975,58.591248 
	C99.627975,61.479137 99.627975,63.531857 99.627975,66.161629 
	C106.336868,65.754654 112.712891,65.955185 118.847710,64.834900 
	C125.324997,63.652065 128.462982,57.491325 128.005859,49.177910 
	C127.637390,42.476658 123.611305,37.339928 117.166069,37.011944 
	C107.581253,36.524189 97.953232,36.885551 88.442123,36.885551 
	C88.442123,50.293045 88.442123,63.502506 88.442123,76.555870 
	C90.748940,76.555870 92.671066,76.555870 95.062828,76.555870 
	C95.062828,65.539093 95.062828,54.815102 95.062828,43.897190 
	C101.512138,43.897190 107.484856,43.961891 113.455330,43.874146 
	C117.350807,43.816895 120.450409,44.835823 121.149040,49.168255 
	C121.847832,53.501709 121.123871,57.210331 115.126518,58.591248 
M352.998383,48.513424 
	C352.998169,52.011463 353.033844,55.509953 352.990479,59.007454 
	C352.892517,66.907791 349.582062,69.944237 340.996796,70.069031 
	C329.931366,70.229858 326.351959,67.766685 326.115570,59.342522 
	C325.906586,51.895515 326.071777,44.438015 326.071777,36.869495 
	C323.567047,36.869495 321.488037,36.869495 319.128204,36.869495 
	C319.128204,38.469551 319.126434,39.777168 319.128510,41.084782 
	C319.139130,47.747543 318.904968,54.422070 319.223175,61.070133 
	C319.635040,69.674431 323.370575,74.254440 330.972839,76.359772 
	C341.228882,79.200035 352.602417,76.680740 356.736481,70.540108 
	C357.648132,69.185951 358.724091,67.568657 358.752441,66.054337 
	C358.934296,56.341370 358.845245,46.623333 358.845245,36.839149 
	C357.111420,36.839149 355.186859,36.839149 352.998383,36.839149 
	C352.998383,40.576134 352.998383,44.052017 352.998383,48.513424 
M139.949051,49.376411 
	C134.915939,58.368313 129.882828,67.360214 124.849037,76.353333 
	C130.662689,78.256187 133.485367,75.919174 135.351730,71.227135 
	C136.564743,68.177650 138.448700,65.392189 140.063339,62.505943 
	C143.011154,57.236584 145.982193,51.980228 149.171280,46.313793 
	C152.018463,51.541306 154.493958,56.086380 157.116104,60.900719 
	C144.960464,60.912369 144.960464,60.912369 143.491287,66.843117 
	C147.343948,66.843117 151.204865,67.181099 154.979111,66.753670 
	C159.258301,66.269043 161.874313,67.663895 163.177795,71.755646 
	C164.878342,77.093750 168.623642,77.892380 173.751129,76.207008 
	C166.653397,63.510513 159.721893,50.920605 152.578445,38.452122 
	C150.500626,34.825367 148.170517,35.037525 145.867844,38.780373 
	C143.876266,42.017567 142.083817,45.377251 139.949051,49.376411 
M255.961212,66.845612 
	C257.461487,68.369576 259.572968,69.636024 260.344452,71.467056 
	C262.436707,76.433014 265.712189,78.081024 271.295776,76.320427 
	C264.074158,63.432255 257.000793,50.583775 249.668945,37.884510 
	C247.874054,34.775623 245.295639,35.236633 243.218094,38.886673 
	C238.063431,47.942917 233.052490,57.081013 227.990601,66.189987 
	C226.108032,69.577713 224.244293,72.975899 222.222122,76.640923 
	C229.678833,77.022346 229.680878,77.023476 232.827606,71.292702 
	C237.305466,63.137688 241.779984,54.980839 246.588150,46.219406 
	C249.435791,51.469585 251.878708,55.973541 254.503693,60.813225 
	C242.323227,61.061718 242.323227,61.061718 241.106140,66.844414 
	C245.790726,66.844414 250.428223,66.844414 255.961212,66.845612 
M50.495213,93.103760 
	C51.307621,92.618591 52.817848,92.147308 52.827816,91.646172 
	C52.978584,84.068367 52.932438,76.486649 52.932438,67.953346 
	C44.927326,72.763138 37.704227,77.103065 29.956661,81.758118 
	C37.074890,85.718498 43.442417,89.261215 50.495213,93.103760 
z"/>
<path fill="#0571CA" opacity="1.000000" stroke="none" 
	d="
M35.887714,24.107170 
	C50.264828,32.376595 64.301346,40.501820 79.158676,49.102177 
	C62.441544,58.963081 46.539619,68.343132 30.176228,77.995377 
	C30.176228,58.687046 30.176228,40.127144 30.176228,20.864206 
	C32.219135,22.042871 33.883129,23.002922 35.887714,24.107170 
M40.995281,47.655899 
	C40.995281,50.997631 40.995281,54.339359 40.995281,58.399261 
	C46.783054,55.121166 51.672428,52.351906 57.176266,49.234627 
	C51.525909,46.052078 46.569653,43.260475 40.995277,40.120724 
	C40.995277,42.855766 40.995277,44.798103 40.995281,47.655899 
z"/>
<path fill="#F4F4F4" opacity="1.000000" stroke="none" 
	d="
M378.040588,39.963943 
	C381.520050,48.583473 384.908020,56.834976 388.730988,66.145966 
	C391.044556,60.642551 393.046417,55.927776 395.009338,51.196827 
	C396.655212,47.229984 398.075439,43.155285 399.972839,39.314705 
	C400.646210,37.951672 402.359375,36.460320 403.734924,36.313808 
	C404.639069,36.217514 406.378601,38.267902 406.735687,39.622723 
	C409.937225,51.770451 412.914825,63.977180 416.049500,76.531807 
	C413.765350,76.531807 411.721741,76.531807 409.402924,76.531807 
	C407.164368,67.747772 404.927490,58.970238 402.433929,49.185551 
	C399.454803,56.394043 396.775940,62.864655 394.108307,69.339897 
	C393.541595,70.715523 393.275879,72.307289 392.405731,73.442482 
	C391.311646,74.869766 389.859650,76.628487 388.327972,76.894066 
	C387.363190,77.061363 385.484344,74.968376 384.851929,73.523293 
	C382.004028,67.015457 379.467255,60.371864 376.786713,53.790077 
	C376.329254,52.666874 375.718018,51.606308 374.727814,49.609203 
	C372.228241,59.308475 369.992340,67.984612 367.754730,76.667389 
	C365.467834,76.667389 363.514984,76.667389 361.138916,76.667389 
	C364.357452,64.094810 367.442169,51.784355 370.741394,39.531651 
	C371.099213,38.202732 373.118286,36.074284 373.641907,36.268749 
	C375.265564,36.871685 376.539429,38.416576 378.040588,39.963943 
z"/>
<path fill="#F5F5F5" opacity="1.000000" stroke="none" 
	d="
M297.377075,36.607620 
	C311.035217,36.853699 321.017303,53.601498 309.970642,70.897064 
	C311.855408,72.618134 313.764648,74.361526 315.673889,76.104927 
	C315.537811,76.553032 315.401733,77.001129 315.265656,77.449226 
	C312.127075,76.690186 308.996216,75.896355 305.844299,75.197495 
	C305.091492,75.030586 304.262146,75.116943 303.478760,75.194839 
	C298.074615,75.732239 292.670258,76.785294 287.271729,76.751297 
	C276.791595,76.685303 269.162323,67.862190 269.073273,56.412323 
	C268.984680,45.027962 276.112427,37.085144 286.959564,36.604443 
	C290.281464,36.457233 293.615356,36.580643 297.377075,36.607620 
M290.519135,69.382477 
	C293.049927,69.382477 295.580688,69.382477 299.382324,69.382477 
	C295.306549,65.813179 292.400391,63.268150 289.369171,60.613609 
	C296.282471,57.867035 300.281006,62.445229 304.465424,66.289978 
	C307.554443,61.781673 308.847351,57.561543 307.392059,52.677483 
	C305.927460,47.762348 302.982910,44.026390 297.771149,44.096008 
	C290.704987,44.190392 282.500488,41.084557 277.591797,49.618824 
	C273.369781,56.959259 276.884003,71.022423 290.519135,69.382477 
z"/>
<path fill="#F7F7F7" opacity="1.000000" stroke="none" 
	d="
M191.316010,65.782158 
	C189.974991,63.869160 189.097992,61.958004 187.800232,59.129997 
	C194.120468,59.129997 199.067627,59.198933 204.012024,59.111141 
	C209.246613,59.018196 211.301300,56.707100 211.242233,51.231361 
	C211.187027,46.114124 209.160217,43.977913 204.006531,43.911499 
	C197.552078,43.828320 191.095764,43.891495 184.170563,43.891495 
	C184.170563,55.007401 184.170563,65.738617 184.170563,76.656067 
	C181.928360,76.656067 180.152176,76.656067 177.974564,76.656067 
	C177.974564,63.488461 177.974564,50.310066 177.974564,36.730358 
	C187.372574,36.730358 196.808502,36.508957 206.227509,36.812580 
	C211.967789,36.997616 215.734406,40.370312 217.235519,45.971832 
	C218.880295,52.109463 218.360931,57.840649 213.556259,62.559345 
	C212.770645,63.330898 211.783997,63.897758 210.638092,64.745857 
	C214.200729,68.627754 217.625259,72.359154 221.273178,76.333992 
	C215.405716,77.777000 210.808090,77.128334 208.104752,71.883667 
	C204.461761,64.816032 198.061005,65.558792 191.316010,65.782158 
z"/>
<path fill="#F4F4F4" opacity="1.000000" stroke="none" 
	d="
M115.572731,58.493752 
	C121.123871,57.210331 121.847832,53.501709 121.149040,49.168255 
	C120.450409,44.835823 117.350807,43.816895 113.455330,43.874146 
	C107.484856,43.961891 101.512138,43.897190 95.062828,43.897190 
	C95.062828,54.815102 95.062828,65.539093 95.062828,76.555870 
	C92.671066,76.555870 90.748940,76.555870 88.442123,76.555870 
	C88.442123,63.502506 88.442123,50.293045 88.442123,36.885551 
	C97.953232,36.885551 107.581253,36.524189 117.166069,37.011944 
	C123.611305,37.339928 127.637390,42.476658 128.005859,49.177910 
	C128.462982,57.491325 125.324997,63.652065 118.847710,64.834900 
	C112.712891,65.955185 106.336868,65.754654 99.627975,66.161629 
	C99.627975,63.531857 99.627975,61.479137 99.627975,58.591248 
	C104.657204,58.591248 109.891861,58.591248 115.572731,58.493752 
z"/>
<path fill="#F5F5F5" opacity="1.000000" stroke="none" 
	d="
M352.998383,48.020660 
	C352.998383,44.052017 352.998383,40.576134 352.998383,36.839149 
	C355.186859,36.839149 357.111420,36.839149 358.845245,36.839149 
	C358.845245,46.623333 358.934296,56.341370 358.752441,66.054337 
	C358.724091,67.568657 357.648132,69.185951 356.736481,70.540108 
	C352.602417,76.680740 341.228882,79.200035 330.972839,76.359772 
	C323.370575,74.254440 319.635040,69.674431 319.223175,61.070133 
	C318.904968,54.422070 319.139130,47.747543 319.128510,41.084782 
	C319.126434,39.777168 319.128204,38.469551 319.128204,36.869495 
	C321.488037,36.869495 323.567047,36.869495 326.071777,36.869495 
	C326.071777,44.438015 325.906586,51.895515 326.115570,59.342522 
	C326.351959,67.766685 329.931366,70.229858 340.996796,70.069031 
	C349.582062,69.944237 352.892517,66.907791 352.990479,59.007454 
	C353.033844,55.509953 352.998169,52.011463 352.998383,48.020660 
z"/>
<path fill="#F5F5F5" opacity="1.000000" stroke="none" 
	d="
M140.076202,49.029602 
	C142.083817,45.377251 143.876266,42.017567 145.867844,38.780373 
	C148.170517,35.037525 150.500626,34.825367 152.578445,38.452122 
	C159.721893,50.920605 166.653397,63.510513 173.751129,76.207008 
	C168.623642,77.892380 164.878342,77.093750 163.177795,71.755646 
	C161.874313,67.663895 159.258301,66.269043 154.979111,66.753670 
	C151.204865,67.181099 147.343948,66.843117 143.491287,66.843117 
	C144.960464,60.912369 144.960464,60.912369 157.116104,60.900719 
	C154.493958,56.086380 152.018463,51.541306 149.171280,46.313793 
	C145.982193,51.980228 143.011154,57.236584 140.063339,62.505943 
	C138.448700,65.392189 136.564743,68.177650 135.351730,71.227135 
	C133.485367,75.919174 130.662689,78.256187 124.849037,76.353333 
	C129.882828,67.360214 134.915939,58.368313 140.076202,49.029602 
z"/>
<path fill="#F4F4F4" opacity="1.000000" stroke="none" 
	d="
M255.513474,66.845016 
	C250.428223,66.844414 245.790726,66.844414 241.106140,66.844414 
	C242.323227,61.061718 242.323227,61.061718 254.503693,60.813225 
	C251.878708,55.973541 249.435791,51.469585 246.588150,46.219406 
	C241.779984,54.980839 237.305466,63.137688 232.827606,71.292702 
	C229.680878,77.023476 229.678833,77.022346 222.222122,76.640923 
	C224.244293,72.975899 226.108032,69.577713 227.990601,66.189987 
	C233.052490,57.081013 238.063431,47.942917 243.218094,38.886673 
	C245.295639,35.236633 247.874054,34.775623 249.668945,37.884510 
	C257.000793,50.583775 264.074158,63.432255 271.295776,76.320427 
	C265.712189,78.081024 262.436707,76.433014 260.344452,71.467056 
	C259.572968,69.636024 257.461487,68.369576 255.513474,66.845016 
z"/>
<path fill="#034873" opacity="1.000000" stroke="none" 
	d="
M50.152576,92.953842 
	C43.442417,89.261215 37.074890,85.718498 29.956661,81.758118 
	C37.704227,77.103065 44.927326,72.763138 52.932438,67.953346 
	C52.932438,76.486649 52.978584,84.068367 52.827816,91.646172 
	C52.817848,92.147308 51.307621,92.618591 50.152576,92.953842 
z"/>
<path fill="#000204" opacity="1.000000" stroke="none" 
	d="
M40.995277,47.198170 
	C40.995277,44.798103 40.995277,42.855766 40.995277,40.120724 
	C46.569653,43.260475 51.525909,46.052078 57.176266,49.234627 
	C51.672428,52.351906 46.783054,55.121166 40.995281,58.399261 
	C40.995281,54.339359 40.995281,50.997631 40.995277,47.198170 
z"/>
<path fill="#030303" opacity="1.000000" stroke="none" 
	d="
M290.054932,69.382477 
	C276.884003,71.022423 273.369781,56.959259 277.591797,49.618824 
	C282.500488,41.084557 290.704987,44.190392 297.771149,44.096008 
	C302.982910,44.026390 305.927460,47.762348 307.392059,52.677483 
	C308.847351,57.561543 307.554443,61.781673 304.465424,66.289978 
	C300.281006,62.445229 296.282471,57.867035 289.369171,60.613609 
	C292.400391,63.268150 295.306549,65.813179 299.382324,69.382477 
	C295.580688,69.382477 293.049927,69.382477 290.054932,69.382477 
z"/>
</svg>